<svg width="99" height="65" viewBox="0 0 99 65" fill="none" xmlns="http://www.w3.org/2000/svg">
<path d="M65.9352 7.87363C65.5111 7.05912 64.9417 6.2575 64.2873 5.5335C62.7362 3.81398 60.5675 2.43061 57.9861 1.47388C55.4051 0.465435 52.4847 0 49.4795 0C46.4742 0 43.5054 0.478364 40.9243 1.47388C38.3795 2.43061 36.2225 3.82691 34.6715 5.5335C34.0171 6.24458 33.4476 7.05912 33.0234 7.87363C36.3558 7.05912 42.0512 6.01187 47.3588 5.86965C47.8799 5.86965 48.2556 6.01187 48.4373 6.348C48.7161 6.68419 48.7161 7.97706 48.7161 8.59762L48.5706 23.5303C48.8493 23.5303 49.1402 23.582 49.4673 23.582C49.7461 23.582 50.0732 23.582 50.3641 23.5303L50.2186 8.59762C50.2186 7.97706 50.1702 6.68419 50.461 6.348C50.6913 6.01187 51.0669 5.86965 51.5395 5.86965C56.8592 6.01187 62.5909 7.05912 65.9352 7.87363Z" fill="#F8F5EC"/>
<path d="M66.6359 9.83651C61.7398 8.73757 58.4562 8.50482 55.2571 8.36263C52.4336 8.16869 52.4337 9.21588 52.676 11.1294C52.7244 11.2716 52.7244 11.4138 52.7729 11.556C53.7181 17.2317 54.8935 22.1059 55.0753 22.9204C61.9337 21.3431 66.8779 16.9602 66.8779 11.8016C66.8662 11.1164 66.7812 10.4571 66.6359 9.83651Z" fill="#F8F5EC"/>
<path d="M46.2264 11.1177C46.5052 9.20422 46.4567 8.15697 43.6939 8.35091C40.4462 8.4931 37.2108 8.73879 32.3152 9.82479C32.1698 10.4453 32.085 11.1177 32.085 11.777C32.085 13.9749 32.9816 16.1728 34.666 18.0345C36.2171 19.7024 38.3862 21.0857 40.9189 22.0425C41.8641 22.4303 42.8456 22.7147 43.8392 22.9475C44.0331 22.133 45.2449 17.1683 46.1901 11.4021C46.2264 11.3116 46.2264 11.2211 46.2264 11.1177Z" fill="#F8F5EC"/>
<path d="M0 32.9578H11.1726V36.4356H7.93716V44.6713H3.28394V36.4356H0V32.9578Z" fill="#F8F5EC"/>
<path d="M16.8029 37.7156L14.4521 44.6713H9.99268L14.3551 32.9578H19.1901L23.698 44.6713H19.1901L16.8029 37.7156Z" fill="#F8F5EC"/>
<path d="M22.626 32.9578H33.7986V36.4356H30.5995V44.6713H25.9584V36.4356H22.626V32.9578Z" fill="#F8F5EC"/>
<path d="M39.4168 37.7156L37.078 44.6713H32.6187L36.9811 32.9578H41.8161L46.3239 44.6713H41.8161L39.4168 37.7156Z" fill="#F8F5EC"/>
<path fill-rule="evenodd" clip-rule="evenodd" d="M92.772 38.0172H94.1114C94.9339 38.0172 95.4509 37.9778 95.6741 37.9123C95.8979 37.8337 96.074 37.6895 96.2149 37.4536C96.3557 37.2177 96.4262 36.9162 96.4262 36.5361C96.4262 36.1691 96.3557 35.8807 96.2149 35.6579C96.074 35.4351 95.886 35.2777 95.6508 35.1991C95.4866 35.1467 94.993 35.1205 94.1819 35.1205H92.772V38.0172ZM90.9622 44.6494V33.1544H94.7698C95.7451 33.1544 96.4381 33.2592 96.8613 33.469C97.2726 33.6786 97.6247 34.0326 97.8832 34.5437C98.1536 35.055 98.2831 35.671 98.2831 36.3788C98.2831 37.2832 98.0831 38.0041 97.6719 38.5546C97.2606 39.1051 96.6846 39.4459 95.9212 39.5901C96.3092 39.8784 96.6261 40.2061 96.8846 40.5469C97.143 40.9008 97.4839 41.5169 97.919 42.4213L99 44.6627H96.8494L95.5332 42.1591C95.0634 41.2547 94.7459 40.6911 94.5698 40.4683C94.4051 40.2454 94.2171 40.0882 94.0291 39.9964C93.841 39.9178 93.536 39.8653 93.1247 39.8653H92.772V44.6627H90.9622V44.6494ZM82.6314 44.6494V33.1544H89.2706V35.0942H84.4292V37.6371H88.9298V39.5639H84.4292V42.6966H89.4348V44.6361H82.6314V44.6494ZM72.0795 44.6494L69.9408 33.1544H71.7977L73.1372 41.045L74.7703 33.1544H76.9209L78.4955 41.1761L79.8701 33.1544H81.6913L79.5174 44.6494H77.5906L75.8041 36.0642L74.0301 44.6494H72.0795ZM62.5853 38.8954C62.5853 40.2193 62.8199 41.2023 63.3021 41.8708C63.7838 42.5392 64.3712 42.867 65.0761 42.867C65.7811 42.867 66.369 42.5392 66.8388 41.8839C67.3085 41.2285 67.5323 40.2193 67.5323 38.8692C67.5323 37.5322 67.3085 36.5492 66.8507 35.9069C66.3923 35.2647 65.8049 34.9501 65.0642 34.9501C64.336 34.9501 63.7248 35.2778 63.2669 35.9201C62.8199 36.5492 62.5853 37.5453 62.5853 38.8954ZM60.7284 38.974C60.7284 37.5978 60.9164 36.4837 61.3044 35.5923C61.6923 34.7011 62.1973 34.0457 62.8085 33.6131C63.4311 33.1806 64.1832 32.9578 65.0642 32.9578C66.3451 32.9578 67.3909 33.469 68.202 34.5045C69.0126 35.5399 69.412 36.9948 69.412 38.9085C69.412 40.8353 68.9894 42.3295 68.1316 43.4177C67.3795 44.3744 66.369 44.8592 65.0761 44.8592C63.7838 44.8592 62.7614 44.3871 62.0093 43.4436C61.1516 42.3426 60.7284 40.8615 60.7284 38.974ZM54.5478 35.0942V38.358H55.5466C56.2164 38.358 56.6747 38.3056 56.9097 38.2138C57.1447 38.1221 57.3444 37.9386 57.4972 37.6764C57.6499 37.4143 57.7322 37.0997 57.7322 36.7196C57.7322 36.3395 57.6499 36.0118 57.4972 35.7627C57.3327 35.5006 57.1447 35.3302 56.9097 35.2385C56.6747 35.1467 56.1812 35.1074 55.4291 35.1074H54.5478V35.0942ZM52.7383 44.6494V33.1544H55.6406C56.7217 33.1544 57.4267 33.2068 57.7675 33.3248C58.2962 33.4951 58.731 33.8753 59.0835 34.4651C59.4243 35.0418 59.6005 35.789 59.6005 36.7065C59.6005 37.5322 59.4478 38.24 59.154 38.7905C58.8603 39.3542 58.4842 39.7474 58.0377 39.9702C57.5912 40.193 56.8274 40.311 55.7346 40.311H54.5478V44.6494H52.7383Z" fill="#F8F5EC"/>
</svg>
